HIERARCHY
ROOT Pelvis
{
	OFFSET 0.000000 0.941512 0.000000
	CHANNELS 6 Xposition Yposition Zposition Zrotation Yrotation Xrotation 
	JOINT Pelvis_L_Hip
	{
		OFFSET 0.000000 0.000000 0.000000
		CHANNELS 3 Zrotation Yrotation Xrotation
		JOINT L_Hip
		{
			OFFSET 0.062321 -0.080322 -0.016990
			CHANNELS 3 Zrotation Yrotation Xrotation
			JOINT L_Knee
			{
				OFFSET 0.093051 -0.381305 -0.029784
				CHANNELS 3 Zrotation Yrotation Xrotation
				JOINT L_Ankle
				{
					OFFSET -0.010371 -0.431000 -0.033614
					CHANNELS 3 Zrotation Yrotation Xrotation
					End Site #name: L_Foot
					{
						OFFSET 0.069299 -0.038670 0.119418
					}
				}
			}
		}
	}
	JOINT Pelvis_R_Hip
	{
		OFFSET 0.000000 0.000000 0.000000
		CHANNELS 3 Zrotation Yrotation Xrotation
		JOINT R_Hip
		{
			OFFSET -0.055334 -0.094904 -0.002373
			CHANNELS 3 Zrotation Yrotation Xrotation
			JOINT R_Knee
			{
				OFFSET -0.064207 -0.384370 -0.019592
				CHANNELS 3 Zrotation Yrotation Xrotation
				JOINT R_Ankle
				{
					OFFSET 0.025418 -0.419734 -0.065953
					CHANNELS 3 Zrotation Yrotation Xrotation
					End Site #name: R_Foot
					{
						OFFSET -0.057233 -0.039888 0.132134
					}
				}
			}
		}
	}
	JOINT Pelvis_Spine1
	{
		OFFSET 0.000000 0.000000 0.000000
		CHANNELS 3 Zrotation Yrotation Xrotation
		JOINT Spine1
		{
			OFFSET -0.005562 0.124093 -0.043360
			CHANNELS 3 Zrotation Yrotation Xrotation
			JOINT Spine2
			{
				OFFSET 0.012244 0.139499 0.029894
				CHANNELS 3 Zrotation Yrotation Xrotation
				JOINT Spine3
				{
					OFFSET -0.002556 0.056561 0.009225
					CHANNELS 3 Zrotation Yrotation Xrotation
					JOINT Spine3_Neck
					{
						OFFSET 0.000000 0.000000 0.000000
						CHANNELS 3 Zrotation Yrotation Xrotation
						JOINT Neck
						{
							OFFSET -0.005205 0.217920 -0.024551
							CHANNELS 3 Zrotation Yrotation Xrotation
							End Site #name: Head
							{
								OFFSET 0.002365 0.091850 0.046637
							}
						}
					}
					JOINT Spine3_L_Collar
					{
						OFFSET 0.000000 0.000000 0.000000
						CHANNELS 3 Zrotation Yrotation Xrotation
						JOINT L_Collar
						{
							OFFSET 0.072225 0.116603 -0.009480
							CHANNELS 3 Zrotation Yrotation Xrotation
							JOINT L_Shoulder
							{
								OFFSET 0.115937 -0.058643 -0.021018
								CHANNELS 3 Zrotation Yrotation Xrotation
								JOINT L_Elbow
								{
									OFFSET 0.021994 -0.254722 -0.024492
									CHANNELS 3 Zrotation Yrotation Xrotation
									End Site #name: L_Wrist
									{
										OFFSET 0.048810 -0.240214 0.103329
									}
								}
							}
						}
					}
					JOINT Spine3_R_Collar
					{
						OFFSET 0.000000 0.000000 0.000000
						CHANNELS 3 Zrotation Yrotation Xrotation
						JOINT R_Collar
						{
							OFFSET -0.073372 0.120704 -0.024611
							CHANNELS 3 Zrotation Yrotation Xrotation
							JOINT R_Shoulder
							{
								OFFSET -0.108089 -0.054969 -0.020504
								CHANNELS 3 Zrotation Yrotation Xrotation
								JOINT R_Elbow
								{
									OFFSET -0.033684 -0.260739 0.009889
									CHANNELS 3 Zrotation Yrotation Xrotation
									End Site #name: R_Wrist
									{
										OFFSET -0.067980 -0.232763 0.118463
									}
								}
							}
						}
					}
				}
			}
		}
	}
}
MOTION
Frames: 8
Frame Time: 0.041667
0.000000 0.965678 0.000000 -1.207942 1.031969 5.706612 0.000000 0.000000 0.000000 4.245667 -4.266009 -19.238465 -16.095133 5.378588 33.509972 7.367325 29.609892 12.012957 0.000000 0.000000 0.000000 8.476080 3.493182 -16.450760 -1.543991 0.823745 7.805004 -1.817444 -9.407167 3.187287 0.000000 0.000000 0.000000 7.253378 -0.044466 -10.355266 -5.658869 3.679313 27.432340 3.519797 0.701281 -25.386750 0.000000 0.000000 0.000000 3.698135 -2.906431 16.539472 0.000000 0.000000 0.000000 22.421553 -10.841690 -4.144906 -17.752313 1.722854 2.650371 -5.691555 -2.673294 -0.725075 0.000000 0.000000 0.000000 -16.857473 4.532054 0.133420 16.866654 -1.350105 9.184947 5.764943 0.621432 6.637727 
-0.005346 0.967210 0.011303 -0.336397 -1.455461 5.710302 0.000000 0.000000 0.000000 2.991297 -4.896458 -21.941089 -12.795181 4.741792 36.664491 5.619321 24.984636 9.734372 0.000000 0.000000 0.000000 8.267670 3.349193 -15.850040 -2.151773 0.981789 7.813232 -1.207093 -7.330331 2.801891 0.000000 0.000000 0.000000 7.109038 -0.035873 -10.407881 -5.434114 3.776361 27.781347 2.962082 0.143795 -25.507977 0.000000 0.000000 0.000000 3.269369 -2.460042 16.452970 0.000000 0.000000 0.000000 22.852273 -10.524313 -4.120169 -17.661439 1.939764 3.520232 -5.780479 -2.664134 -0.545082 0.000000 0.000000 0.000000 -16.833006 4.469111 0.373517 16.996339 -1.097845 8.402971 5.572030 0.538996 6.622866 
-0.009553 0.968382 0.022768 0.327043 -3.914541 5.653682 0.000000 0.000000 0.000000 1.511574 -5.605220 -24.715897 -8.977201 3.543246 38.187668 3.696467 19.390199 7.684437 0.000000 0.000000 0.000000 8.014078 3.200687 -15.263803 -2.547013 1.098499 7.923317 -0.642950 -5.256018 2.377397 0.000000 0.000000 0.000000 7.191043 -0.084410 -10.272997 -5.259581 3.896400 28.106184 2.399759 -0.257693 -25.833343 0.000000 0.000000 0.000000 2.726795 -1.955128 16.299631 0.000000 0.000000 0.000000 22.991925 -10.038024 -3.966846 -17.357359 2.104045 4.299837 -6.049223 -2.755082 -0.437736 0.000000 0.000000 0.000000 -16.717427 4.473654 0.527518 16.748886 -0.988023 8.122511 5.646634 0.644836 6.405753 
-0.013281 0.968970 0.034953 0.766100 -6.097896 5.404384 0.000000 0.000000 0.000000 0.176643 -6.325168 -27.455325 -5.344389 2.189408 38.389456 1.760297 13.545473 6.297358 0.000000 0.000000 0.000000 7.995939 2.973226 -14.302700 -3.014375 1.203761 7.774436 -0.244528 -3.379776 1.804658 0.000000 0.000000 0.000000 7.403888 -0.175595 -9.941232 -5.091212 3.995795 28.356891 1.919647 -0.647746 -26.005891 0.000000 0.000000 0.000000 2.188911 -1.466396 15.790923 0.000000 0.000000 0.000000 22.950145 -9.610689 -3.852576 -17.070302 2.220684 4.877486 -5.926450 -2.741379 -0.587766 0.000000 0.000000 0.000000 -16.442147 4.472326 0.632417 16.277735 -0.944878 8.041490 5.769511 0.811897 6.076791 
-0.016552 0.969457 0.047910 1.025402 -7.863699 5.171114 0.000000 0.000000 0.000000 -0.992236 -7.057169 -30.214958 -2.043933 0.855941 37.395375 0.152394 9.007535 5.876744 0.000000 0.000000 0.000000 8.054885 2.712291 -13.219356 -3.532576 1.313463 7.616799 0.124271 -1.521809 1.263480 0.000000 0.000000 0.000000 7.684025 -0.252915 -9.737469 -4.799654 4.031337 28.708550 1.443323 -1.108061 -26.102967 0.000000 0.000000 0.000000 1.770461 -1.089680 15.493183 0.000000 0.000000 0.000000 23.023582 -9.355245 -3.839728 -17.060805 2.265441 5.047162 -5.807612 -2.638166 -0.405038 0.000000 0.000000 0.000000 -16.240671 4.260249 0.878821 15.859352 -0.849474 7.748745 5.875183 0.870753 6.040215 
-0.019499 0.969565 0.062026 1.173128 -9.490795 4.899748 0.000000 0.000000 0.000000 -1.862919 -7.649593 -32.543708 0.361541 -0.091196 35.067756 -2.144514 4.318856 6.903395 0.000000 0.000000 0.000000 8.042442 2.425734 -12.069146 -3.823928 1.378971 7.546708 0.375685 0.064199 0.723589 0.000000 0.000000 0.000000 7.946278 -0.325230 -9.537390 -4.616575 4.091258 28.939015 1.145705 -1.457560 -26.044401 0.000000 0.000000 0.000000 1.497943 -0.822516 15.187066 0.000000 0.000000 0.000000 23.045388 -9.351566 -4.013077 -17.215155 2.292723 5.054157 -5.642107 -2.442220 0.046347 0.000000 0.000000 0.000000 -16.233128 4.236818 1.020671 15.710982 -0.788773 7.567721 5.851461 0.861633 6.032781 
-0.022420 0.969017 0.077332 1.242467 -11.002941 4.597042 0.000000 0.000000 0.000000 -2.621511 -8.057681 -34.123575 1.981483 -0.667459 31.374292 -4.561794 -0.290983 8.254688 0.000000 0.000000 0.000000 7.882871 2.152054 -11.002621 -3.753127 1.408251 7.868580 0.451984 1.324330 0.089386 0.000000 0.000000 0.000000 8.146018 -0.379716 -9.386286 -4.382467 4.144388 29.311285 0.866250 -1.843546 -25.995269 0.000000 0.000000 0.000000 1.321356 -0.625976 14.773876 0.000000 0.000000 0.000000 22.887181 -9.515093 -4.321714 -17.161185 2.331079 5.185038 -5.646032 -2.384282 0.267867 0.000000 0.000000 0.000000 -15.904756 4.159494 1.118772 15.380236 -0.693298 7.250749 5.843614 0.800150 6.195404 
-0.025646 0.967355 0.094401 1.049078 -12.276777 4.377117 0.000000 0.000000 0.000000 -3.184388 -8.245812 -34.845573 3.404686 -1.092709 26.670393 -6.408862 -3.237590 9.681162 0.000000 0.000000 0.000000 7.944156 1.855084 -9.805803 -3.622889 1.427134 8.215559 0.451090 2.581827 -0.644673 0.000000 0.000000 0.000000 8.351918 -0.401119 -9.434353 -3.984148 4.103606 29.647221 0.600633 -2.280132 -25.972096 0.000000 0.000000 0.000000 1.338318 -0.560974 14.600703 0.000000 0.000000 0.000000 22.775341 -9.706041 -4.632623 -17.202153 2.399223 5.400449 -5.760877 -2.400312 0.394945 0.000000 0.000000 0.000000 -15.594306 3.962391 1.291594 15.133432 -0.604173 6.954580 5.939857 0.787802 6.352653 
